<?xml version="1.0" encoding="UTF-8"?>
<svg width="600" height="290" version="1.1" xmlns="http://www.w3.org/2000/svg">
 <path d="m306.99 254.85h-6.3686v8.9727h6.3686c2.8102 0 4.448-1.3551 4.448-4.4834 0-3.1283-1.6378-4.4893-4.448-4.4893m-36.874 2.1976-3.8824 10.705h7.6884zm-30.459-2.1976h-6.4924v8.8136h6.4924c2.0856 0 3.853-1.4433 3.853-4.4126 0-2.9575-1.7674-4.4009-3.853-4.4009m-11.3-4.2145h12.154c4.9606 0 7.8945 3.3581 7.8945 8.6074 0 5.2551-2.9339 8.625-7.8945 8.625h-7.3407v10.816h-4.8133zm29.469 26.447 10.015-26.447h4.7309l10.015 26.447v1.6026h-4.7309l-2.4862-6.9344h-10.576l-2.5214 6.9344h-4.4481zm37.988-26.447h12.066c5.5321 0 8.4601 3.2403 8.4601 8.6074 0 3.6528-1.6084 6.6986-4.9311 8.1007l5.2493 9.7386v1.6025h-4.7309l-5.7677-10.781h-5.5321v10.781h-4.8133zm35.272 0h4.8133v28.06h-4.8133zm19.041 18.953h4.8133c0 4.1711 3.5997 5.2846 6.3686 5.2846 3.4524 0 5.2493-1.5612 5.2493-3.635 0-2.2091-2.2092-2.9692-6.4924-4.5718l-0.64215-0.24146c-5.2846-2.0032-8.5366-3.6528-8.5366-8.2245 0-4.884 3.8117-8.1714 10.104-8.1714 5.9267 0 10.416 2.6806 10.416 9.4558h-4.8015c0-3.7646-2.7277-5.0431-5.6499-5.0431-3.2167 0-5.2139 1.4433-5.2139 3.4053 0 2.3684 1.9618 3.0459 6.0505 4.4892l0.55972 0.19441c4.9665 1.7674 9.2967 3.529 9.2967 8.4661 0 4.725-3.5643 8.2892-10.622 8.2892-5.8443 0-10.899-3.1225-10.899-9.6973m-86.446-233.81c0.92927-1.9472 2.366-7.5627 2.366-8.8618 0-0.74273-1.7637-1.3479-2.5064-1.3479-2.3202 0-6.0311 8.5836-6.0311 12.668 0 1.0639 0.83745 1.8526 1.626 1.8526 0.92634 0 3.2464-1.6231 4.5457-4.3104m58.123-2.6012c4.084 0 6.1228-5.0073 6.1228-6.7685 0-0.41863-0.74263-0.92917-1.3908-0.92917-1.8097 0-4.3162 5.5181-4.7321 7.6977m32.981 2.2771c1.0668-3.0199 1.7178-5.4748 2.4118-8.5836 0 0-1.4368-1.302-2.5524-1.302-2.5496 0-6.0312 9.3263-6.0312 12.206 0 1.437 0.74283 2.3146 1.7178 2.3146 1.437 0 3.8976-3.0572 4.454-4.6346m38.089-2.2772c0 0.55911-0.60225 1.6289-0.60225 1.6289-2.5983 4.6345-5.2884 8.8589-8.6298 8.8589-2.0878 0-5.3344-1.9502-5.6583-3.2953 0 0-4.4051 3.2953-6.169 3.2953-2.0678 0-5.0132-1.8727-5.8132-3.6336-1.6377 2.1566-3.4014 3.6336-5.3661 3.6336-2.0905 0-5.2883-2.1338-5.9423-3.1088 0 0-3.3841 3.1088-5.4233 3.1088-2.8336 0-6.031-3.2035-6.031-5.1535 0-6.1199 5.1482-16.648 10.017-16.648 2.5525 0 4.8267 1.8985 4.8267 1.8985s2.0851-7.5138 2.782-9.6939c0.23219-0.69688 0.83444-1.021 1.5313-1.021 0.55358 0 3.4329 1.7638 3.4329 2.5525 0 1.1615-0.83454 3.2895-2.6442 9.8802-1.2992 4.7293-3.3384 11.454-3.3384 13.686 0 0.60235 0.83171 1.2962 1.2504 1.2962 1.3135 0 3.6165-3.1804 5.8217-7.0466 1.0037-4.038 2.3804-8.9021 2.9454-10.674 0.27815-0.6482 0.60517-0.87757 1.021-0.87757 0.88039 0 3.9433 1.6232 3.9433 2.4549 0 0.32682-0.0947 0.83454-0.18644 1.1156-0.32692 1.2045-3.2952 11.133-3.2952 13.264 0 0.60225 0.83454 1.302 1.2562 1.302 1.8526 0 5.2884-4.0839 5.7044-5.5666 1.1615-3.7598 2.6872-9.7423 3.2896-11.692 0.18634-0.6482 0.60507-0.87757 0.97512-0.87757 0.92916 0 3.9921 1.6232 3.9921 2.4549 0 0.32692-0.0947 0.83454-0.18362 1.1157-0.41863 1.2044-3.5276 11.271-3.5276 13.732 0 0.60235 0.78878 1.2963 1.2504 1.2963 1.348 0 3.8976-3.5704 6.172-7.7461 0 0 0.41873-0.83172 1.021-0.83172 0.60235 0 1.5774 0.73709 1.5774 1.2935m-59.568 3.8069c0 0.55629-0.78294 1.5773-0.78294 1.5773-1.8584 2.4549-4.9671 5.1021-8.9108 5.1021-2.7304 0-6.2118-2.1451-7.4568-4.6059-1.8326 2.6787-3.8344 4.6059-6.0886 4.6059-1.8842 0-5.469-1.5946-6.1401-3.4444-1.5945 2.0563-3.3126 3.4444-5.2251 3.4444-2.0823 0-5.7962-1.7638-5.7962-3.5763 0-3.6165 2.4578-10.25 2.4578-12.384 0-0.50762-1.8527-0.88049-1.8527-0.88049s-1.629 3.8029-3.8975 7.9813c0 0-0.13766 0.23511-0.34416 0.45602-2.4434 4.4568-5.1481 8.4031-8.3771 8.4031-1.887 0-5.4719-1.5947-6.143-3.4445-1.5945 2.0564-3.3095 3.4445-5.2227 3.4445-2.0879 0-5.9394-1.7638-6.3064-3.063 0 0-2.7875 3.063-5.1534 3.063-1.781 0-4.758-2.0449-5.6874-4.1785-1.7494 2.4519-3.6394 4.1785-5.7672 4.1785-2.0906 0-6.3093-2.3202-6.3093-4.4108 0-3.2437 5.5665-21.059 5.5665-22.59 0-0.78868-0.78868-1.9474-1.9044-1.9474-1.1098 0-3.9893 2.8336-5.6097 4.4998-1.4425 5.4288-4.2703 15.404-5.9423 23.566-0.0917 0.51054-0.1808 0.88331-0.83464 0.88331-1.2504 0-4.1728-0.97512-4.1728-1.9932 0-3.2495 5.9826-23.477 5.9826-25.008 0-0.78868-0.97502-2.0391-2.1308-2.0391-1.2562 0-4.5485 3.6166-5.8448 5.0535-1.8583 7.2875-5.8476 20.411-5.8476 23.104 0 0.51044-0.18351 0.88331-0.83161 0.88331-0.84038 0-4.4568-0.74283-4.4568-2.0449 0-3.4758 6.45-24.397 6.45-26.763 0-0.60224-0.4674-1.0698-1.1156-1.0698-0.50762 0-4.2674 3.1576-6.8657 5.6613-0.50752 0.46458-0.55629 1.5774-0.55629 1.9933 0 1.0698 1.9473 3.6192 1.9473 4.2675 0 0.60507-2.9683 2.5064-3.6594 2.5064-0.92926 0-3.3469-4.4997-3.3469-5.7044 0-1.2074 2.2771-5.5209 3.2952-6.2637 2.4607-1.8067 7.9356-5.521 9.0969-5.521 2.7818 0 6.3524 2.1797 6.814 3.9893 1.3967-1.302 4.365-3.9893 6.0773-3.9893 2.0449 0 5.9423 2.2256 6.7312 3.9435 1.434-1.391 4.3592-3.9435 6.0773-3.9435 2.2225 0 6.398 2.7848 6.398 4.4998 0 2.1824-5.75 20.97-5.75 23.939 0 0.60235 0.78586 1.2962 1.2046 1.2962 1.342 0 3.711-3.3095 5.9133-7.2786 1.7351-5.492 5.6554-11.319 8.8364-11.319 3.7111 0 6.0772 2.7818 6.0772 2.7818 1.2103 0 3.9923 0.32128 3.9923 1.4827 0 1.6261-3.1547 9.3264-3.1547 13.038 0 0.60225 0.83454 1.2962 1.2532 1.2962 1.3537 0 3.7599-3.3869 5.9856-7.4194 1.0067-4.0007 2.2829-8.5605 2.7332-10.21 0.18633-0.6482 0.83746-0.96928 1.5314-0.96928 0.55639 0 3.711 1.6662 3.711 2.5495 0 1.0669-3.7569 11.503-3.7569 14.753 0 0.60235 0.74283 1.2962 1.2046 1.2962 1.3478 0 3.8544-3.5704 6.2176-7.7461 0 0 0.0373-0.0776 0.0978-0.17485 1.5946-2.9196 3.2436-7.061 3.2436-7.061s-1.9502-1.2074-1.9502-2.7819c0-1.5774 1.9502-5.1996 3.1089-5.1996 1.3422 0 3.7083 1.4856 3.7083 2.5525 0 0.97512-0.69407 2.1337-0.69407 3.3382 0 1.1615 5.8908 1.629 5.8908 3.5763 0 1.5286-2.6901 10.02-2.6901 12.662 0 0.51346 0.42155 0.83454 0.83746 0.83454 1.3565 0 3.7626-3.3869 5.988-7.4195 1.0038-4.0007 2.2771-8.5604 2.7303-10.21 0.18634-0.6483 0.83464-0.96938 1.5315-0.96938 0.55922 0 3.714 1.6663 3.714 2.5496 0 1.0668-3.7627 11.503-3.7627 14.753 0 0.60235 0.74273 1.2963 1.2102 1.2963 1.2419 0 3.4816-3.0543 5.6784-6.817 1.4684-5.2825 5.4837-11.781 8.9305-11.781 2.1366 0 6.6366 2.7818 6.6366 4.5456 0 2.5497-2.9683 9.5074-5.9881 9.5074-2.085 0-4.3591-0.6482-4.3591-0.6482s-0.22947 0.6482-0.22947 1.7638c0 1.6203 1.9473 3.3382 3.2494 3.3382 2.1796 0 4.3592-1.6233 6.0253-3.8976 0 0 0.60214-0.92917 1.1614-0.92917 0.6481 0 1.6203 0.88341 1.6203 1.4426m-17.391-21.989c0 1.7637-1.1155 4.775-2.5982 4.775-1.1587 0-3.2036-0.78868-3.2036-1.9472 0-1.7638 1.0698-4.7781 2.5984-4.7781 1.1586 0 3.2034 0.78868 3.2034 1.9502m-29.181 0c0 1.7637-1.1099 4.775-2.5954 4.775-1.1616 0-3.2006-0.78868-3.2006-1.9472 0-1.7638 1.0668-4.7781 2.5982-4.7781 1.1586 0 3.1978 0.78868 3.1978 1.9502m-276.73 52.146v163.72h33.081v-99.976l62.87 99.976h29.479v-163.72h-33.083v99.978l-62.876-99.978zm168.17 0v163.72h107.4v-29.702h-74.321v-38.097h63.515v-28.576h-63.515v-37.655h74.096v-29.69zm136.89 0v109.33c0 17.91 6.1254 32.553 17.154 42.535 11.028 9.9816 26.748 15.226 45.55 15.226 18.805 0 34.528-5.2454 45.558-15.226 11.031-9.9815 17.157-24.624 17.157-42.535v-109.33h-33.071v110.68c0 7.1943-2.411 13.464-7.204 18.032-4.793 4.5682-12.11 7.5544-22.441 7.5544-10.334 0-17.647-2.9872-22.437-7.5544-4.7892-4.5671-7.1961-10.837-7.1961-18.032v-110.68zm166.41 0v163.72h33.071v-66.226h64.647v-28.57h-64.647v-39.235h75.463v-29.692z"/>
</svg>
